HIERARCHY
ROOT root
{
	OFFSET 0.000000 0.000000 0.000000
	CHANNELS 6 Xposition Yposition Zposition Zrotation Yrotation Xrotation
	JOINT lhip
	{
		OFFSET 0.058581 -0.082280 -0.017664
		CHANNELS 3 Zrotation Yrotation Xrotation
		JOINT lknee
		{
			OFFSET 0.043451 -0.386469 0.008037
			CHANNELS 3 Zrotation Yrotation Xrotation
			JOINT lankle
			{
				OFFSET -0.014790 -0.426874 -0.037428
				CHANNELS 3 Zrotation Yrotation Xrotation
				JOINT ltoe
				{
					OFFSET 0.041054 -0.060286 0.122042
					CHANNELS 3 Zrotation Yrotation Xrotation
					End Site
					{
						OFFSET 0.000000 0.000000 0.000000
					}
				}
			}
		}
	}
	JOINT rhip
	{
		OFFSET -0.060310 -0.090513 -0.013543
		CHANNELS 3 Zrotation Yrotation Xrotation
		JOINT rknee
		{
			OFFSET -0.043257 -0.383688 -0.004843
			CHANNELS 3 Zrotation Yrotation Xrotation
			JOINT rankle
			{
				OFFSET 0.019056 -0.420046 -0.034562
				CHANNELS 3 Zrotation Yrotation Xrotation
				JOINT rtoe
				{
					OFFSET -0.034840 -0.062106 0.130323
					CHANNELS 3 Zrotation Yrotation Xrotation
					End Site
					{
						OFFSET 0.000000 0.000000 0.000000
					}
				}
			}
		}
	}
	JOINT lowerback
	{
		OFFSET 0.004439 0.124404 -0.038385
		CHANNELS 3 Zrotation Yrotation Xrotation
		JOINT upperback
		{
			OFFSET 0.004488 0.137956 0.026820
			CHANNELS 3 Zrotation Yrotation Xrotation
			JOINT chest
			{
				OFFSET -0.002265 0.056032 0.002855
				CHANNELS 3 Zrotation Yrotation Xrotation
				JOINT lowerneck
				{
					OFFSET -0.013390 0.211636 -0.033468
					CHANNELS 3 Zrotation Yrotation Xrotation
					JOINT upperneck
					{
						OFFSET 0.010113 0.088937 0.050410
						CHANNELS 3 Zrotation Yrotation Xrotation
						End Site
						{
							OFFSET 0.000000 0.000000 0.000000
						}
					}
				}
				JOINT lclavicle
				{
					OFFSET 0.071702 0.114000 -0.018898
					CHANNELS 3 Zrotation Yrotation Xrotation
					JOINT lshoulder
					{
						OFFSET 0.122921 0.045205 -0.019046
						CHANNELS 3 Zrotation Yrotation Xrotation
						JOINT lelbow
						{
							OFFSET 0.255332 -0.015649 -0.022946
							CHANNELS 3 Zrotation Yrotation Xrotation
							JOINT lwrist
							{
								OFFSET 0.265709 0.012698 -0.007375
								CHANNELS 3 Zrotation Yrotation Xrotation
								End Site
								{
									OFFSET 0.000000 0.000000 0.000000
								}
							}
						}
					}
				}
				JOINT rclavicle
				{
					OFFSET -0.082954 0.112472 -0.023707
					CHANNELS 3 Zrotation Yrotation Xrotation
					JOINT rshoulder
					{
						OFFSET -0.113228 0.046853 -0.008472
						CHANNELS 3 Zrotation Yrotation Xrotation
						JOINT relbow
						{
							OFFSET -0.260127 -0.014369 -0.031269
							CHANNELS 3 Zrotation Yrotation Xrotation
							JOINT rwrist
							{
								OFFSET -0.269108 0.006794 -0.006027
								CHANNELS 3 Zrotation Yrotation Xrotation
								End Site
								{
									OFFSET 0.000000 0.000000 0.000000
								}
							}
						}
					}
				}
			}
		}
	}
}
MOTION
Frames: 18
Frame Time: 0.033333
1.179615 1.145635 0.983747 -90.254168 2.699471 85.500790 0.706403 -0.632352 7.450534 -3.101717 -15.782440 2.883817 6.489394 8.131591 -17.652749 0.000000 -0.000000 0.000000 3.495073 -2.041900 4.136289 3.518934 4.475127 9.225992 1.187026 -3.051051 -14.324647 0.000000 -0.000000 0.000000 -2.736912 2.279335 3.516759 2.156301 -1.879038 3.250376 2.302941 -0.942104 4.374000 3.830581 4.779395 0.258194 2.009247 1.113060 4.083417 -24.272457 5.584863 3.877007 -64.329984 -4.560949 7.774504 11.291814 -25.667269 4.892788 -2.013541 -1.937288 -11.056997 22.757482 -3.686495 3.447366 63.763031 1.692303 9.917687 -15.167917 23.695887 -3.679223 7.837512 0.338705 -11.982874 
1.179395 1.145576 0.983521 -90.194498 2.695772 85.548791 0.709264 -0.718629 7.438445 -3.122340 -15.860776 2.763860 6.402849 8.207452 -17.575082 0.000000 -0.000000 0.000000 3.485726 -1.964537 4.152970 3.555829 4.442650 9.108691 1.250669 -3.158914 -14.333255 0.000000 -0.000000 0.000000 -2.651696 2.237100 3.406893 2.122978 -1.797289 3.194919 2.305826 -0.978143 4.469281 3.963532 4.499382 0.217428 1.828880 0.860575 4.313004 -24.092362 5.747666 3.870547 -64.636045 -4.546708 7.919530 11.382557 -25.352400 5.165390 -1.790506 -2.086173 -11.263942 22.558280 -3.799539 3.422479 63.973909 1.760008 9.976201 -15.180580 23.478599 -3.596237 7.709317 0.422637 -12.261221 
1.178568 1.145609 0.983596 -90.134234 2.719744 85.480822 0.740232 -0.606630 7.614081 -3.046086 -15.994633 2.669060 6.228597 8.091573 -17.621047 0.000000 -0.000000 0.000000 3.494965 -2.099410 4.349889 3.590349 4.596782 9.019362 1.232765 -3.135051 -14.330632 0.000000 -0.000000 0.000000 -2.584700 2.197044 3.206079 2.121462 -1.799272 3.389744 2.290706 -0.946622 4.567156 3.937635 4.690936 0.175742 1.863836 0.964766 4.183794 -24.170207 5.777894 3.792401 -64.638969 -4.512008 7.874202 11.364619 -25.050020 5.127379 -1.779813 -2.068567 -11.262115 22.568811 -3.815517 3.357104 64.010141 1.905187 9.937849 -15.113550 23.151295 -3.764107 7.660272 0.473934 -12.404129 
1.178192 1.145803 0.983495 -90.134918 2.723537 85.528184 0.797561 -0.541295 7.574283 -3.116842 -15.958739 2.691732 6.179123 8.066145 -17.615694 0.000000 -0.000000 0.000000 3.523331 -2.110058 4.346587 3.579920 4.638576 8.953703 1.158953 -3.193223 -14.299997 0.000000 -0.000000 0.000000 -2.496689 2.191825 3.055867 2.124398 -1.767510 3.442197 2.226908 -0.959006 4.552372 3.947625 4.513777 0.219362 1.809583 0.867627 4.208532 -24.224520 5.846991 3.879269 -64.663681 -4.431850 7.826158 11.436085 -24.791631 5.223206 -1.751625 -2.037126 -11.281478 22.506127 -3.813785 3.351766 64.054521 1.907428 9.955581 -15.109813 23.047350 -3.594784 7.644987 0.299036 -12.317068 
1.178141 1.145956 0.983401 -90.132231 2.708020 85.552229 0.750335 -0.696263 7.596701 -3.056662 -15.952778 2.591511 6.461246 8.200884 -17.610604 0.000000 -0.000000 0.000000 3.495144 -2.084512 4.357258 3.634790 4.685674 8.912479 1.119545 -3.183779 -14.251152 0.000000 -0.000000 0.000000 -2.469771 2.227935 2.989240 2.112553 -1.754712 3.490348 2.194382 -0.966890 4.526151 3.949765 4.545406 0.284186 1.869218 0.899311 4.131881 -24.219246 5.855891 3.930305 -64.733403 -4.377358 7.814442 11.547392 -24.672887 5.137777 -1.776639 -1.993650 -11.338199 22.474489 -3.855675 3.327366 64.078434 1.935860 9.973252 -15.130702 23.028153 -3.628544 7.614148 0.402604 -12.449131 
1.178054 1.146083 0.983373 -90.176054 2.701688 85.491020 0.706438 -0.798471 7.653679 -3.022674 -15.868146 2.631115 6.335409 8.260098 -17.670380 0.000000 -0.000000 0.000000 3.493553 -2.047753 4.437020 3.646569 4.745573 8.884932 1.137188 -3.228878 -14.308590 0.000000 -0.000000 0.000000 -2.371283 2.303231 3.037432 2.096335 -1.703687 3.486975 2.129177 -0.995399 4.553827 3.927686 4.590101 0.138753 1.889898 0.869502 4.183893 -24.243882 5.868027 3.898191 -64.742533 -4.346152 7.845776 11.556116 -24.471824 5.035694 -1.726192 -2.094179 -11.399980 22.516500 -3.874286 3.233187 64.032442 1.911663 10.034844 -15.142191 22.947305 -3.710760 7.565380 0.393362 -12.577660 
1.178304 1.146301 0.983350 -90.027964 2.707695 85.525292 0.702167 -0.894963 7.496786 -2.998265 -15.882809 2.837695 6.180781 8.179646 -17.692941 0.000000 -0.000000 0.000000 3.534449 -2.091382 4.383056 3.656739 4.664346 8.883525 1.175988 -3.358258 -14.312287 0.000000 -0.000000 0.000000 -2.338875 2.307533 3.105297 2.106614 -1.757226 3.369449 2.146327 -1.052224 4.576205 3.983746 4.403587 -0.108420 1.843021 0.646888 4.337206 -24.307125 5.895322 3.820502 -64.697381 -4.346941 7.852411 11.416610 -24.249065 5.075415 -1.676058 -2.217335 -11.322483 22.511816 -3.879825 3.184983 63.985124 1.809744 10.095528 -15.179495 23.138856 -3.745740 7.442263 0.428962 -12.592861 
1.178336 1.146588 0.983501 -90.039190 2.671764 85.475020 0.662610 -0.914769 7.556327 -2.986175 -15.830431 2.865383 6.335893 8.198010 -17.785717 0.000000 -0.000000 0.000000 3.528002 -2.033426 4.444338 3.637413 4.726065 8.892272 1.199368 -3.348081 -14.249178 0.000000 -0.000000 0.000000 -2.365658 2.298347 3.113983 2.087869 -1.755125 3.374931 2.174786 -1.018973 4.645214 3.983766 4.414889 -0.060648 1.748324 0.773132 4.283805 -24.367479 5.918880 3.786632 -64.706263 -4.370624 7.842418 11.456210 -24.182271 4.985128 -1.584544 -2.221447 -11.316474 22.591155 -3.785880 3.243675 63.912699 1.941211 10.085890 -15.129162 23.120367 -3.957265 7.339760 0.512845 -12.723875 
1.178316 1.146854 0.983417 -90.044795 2.614034 85.422215 0.602116 -0.937337 7.665207 -2.916702 -15.802029 2.763653 6.296796 8.198709 -17.772749 0.000000 -0.000000 0.000000 3.495801 -1.948365 4.499943 3.630509 4.677338 8.876246 1.143776 -3.414897 -14.340508 0.000000 -0.000000 0.000000 -2.402567 2.317363 3.164184 2.092415 -1.737424 3.428606 2.156234 -1.010917 4.609537 4.039018 4.641843 -0.307702 1.885720 0.779046 4.339678 -24.368274 5.854328 3.814644 -64.676609 -4.347236 7.904440 11.434972 -24.247666 4.944050 -1.584970 -2.381113 -11.385723 22.645706 -3.794227 3.223484 63.899442 1.927104 10.140220 -15.252425 23.356933 -4.141991 7.245560 0.571029 -12.868159 
1.178342 1.147115 0.983309 -90.036680 2.647555 85.501978 0.675988 -1.046701 7.518286 -3.013995 -15.745839 2.861156 6.521776 8.266318 -17.795715 0.000000 -0.000000 0.000000 3.564697 -1.910633 4.422573 3.636503 4.669744 8.910905 1.057408 -3.465420 -14.240778 0.000000 -0.000000 0.000000 -2.390135 2.318613 2.960183 2.133965 -1.743221 3.499654 2.175593 -1.014586 4.678442 4.051179 4.492355 -0.017522 1.874019 0.804032 4.329422 -24.350400 5.772964 3.966205 -64.783600 -4.418337 7.879270 11.491737 -24.402908 4.947500 -1.849764 -2.196805 -11.503250 22.485507 -3.725717 3.417562 64.045527 2.060672 10.102150 -15.409236 23.427996 -4.093693 7.363153 0.503153 -12.892884 
1.178714 1.147521 0.983224 -90.064742 2.592101 85.560081 0.661920 -1.056809 7.438985 -3.064180 -15.780397 2.868651 6.366355 8.275498 -17.679702 0.000000 -0.000000 0.000000 3.556098 -1.771765 4.272326 3.655461 4.666574 8.992303 1.025767 -3.516412 -14.294443 0.000000 -0.000000 0.000000 -2.426590 2.336414 2.910918 2.114359 -1.705101 3.488971 2.140974 -1.069003 4.743262 4.001040 4.657428 0.162142 1.992894 0.908220 4.242781 -24.293990 5.886461 3.924694 -64.815396 -4.479475 7.936303 11.550593 -24.648911 5.036199 -1.863646 -2.101227 -11.470084 22.503277 -3.784858 3.266089 64.063059 2.081018 10.193958 -15.365774 23.552563 -3.997096 7.368867 0.475670 -12.892333 
1.178828 1.147755 0.983216 -90.034500 2.592290 85.589652 0.681784 -1.086952 7.428415 -3.044516 -15.720213 2.773461 6.180031 8.294068 -17.590677 0.000000 -0.000000 0.000000 3.575816 -1.749344 4.260345 3.652717 4.663512 8.953850 1.067797 -3.506619 -14.340089 0.000000 -0.000000 0.000000 -2.443776 2.331561 2.907975 2.140874 -1.710161 3.437487 2.162565 -1.084384 4.747344 4.035940 4.699476 0.186497 2.045802 0.896450 4.270782 -24.320750 5.912570 3.913633 -64.809720 -4.493381 7.978743 11.544415 -24.798015 5.047354 -1.853959 -2.136583 -11.492715 22.516027 -3.809148 3.224784 64.045271 2.066943 10.231168 -15.427589 23.628969 -3.967257 7.290732 0.570508 -12.854671 
1.179301 1.148114 0.983275 -89.994583 2.546643 85.619085 0.641302 -1.107416 7.308896 -3.041028 -15.757712 2.895133 6.309449 8.275693 -17.621412 0.000000 -0.000000 0.000000 3.548743 -1.763357 4.197581 3.630608 4.618520 8.945654 1.104139 -3.522602 -14.268260 0.000000 -0.000000 0.000000 -2.517990 2.371475 2.988347 2.135412 -1.726059 3.379055 2.223417 -1.062879 4.777862 3.973713 4.897905 -0.139246 2.172249 0.930521 4.258540 -24.343220 5.865883 3.746666 -64.767762 -4.534783 8.066026 11.440336 -24.895625 5.044250 -1.642347 -2.328243 -11.509138 22.615040 -3.866183 3.071669 63.928277 2.031970 10.313573 -15.365099 23.830462 -3.947812 7.175314 0.524853 -12.802738 
1.179595 1.148237 0.983302 -90.050309 2.495639 85.606525 0.588124 -0.997010 7.368459 -2.972745 -15.813264 2.773215 6.285260 8.231982 -17.593142 0.000000 -0.000000 0.000000 3.467760 -1.784145 4.156458 3.687921 4.584728 8.986126 1.168855 -3.492822 -14.228402 0.000000 -0.000000 0.000000 -2.532929 2.364231 3.070227 2.144588 -1.704417 3.361555 2.235482 -1.032649 4.731865 3.999111 4.930291 -0.158271 2.062145 0.923101 4.415999 -24.344418 5.818853 3.711796 -64.796850 -4.572798 8.122989 11.413558 -24.956633 5.103093 -1.512865 -2.383638 -11.423663 22.605573 -3.843601 3.105560 63.937689 2.084796 10.330194 -15.372493 23.844147 -3.946075 7.065077 0.566082 -12.716581 
1.179533 1.148773 0.983050 -90.121382 2.544931 85.644080 0.706366 -0.980241 7.330110 -3.039509 -15.804869 2.770763 6.189052 8.301419 -17.569359 0.000000 -0.000000 0.000000 3.580948 -1.683398 4.133330 3.644176 4.602606 8.999471 1.119136 -3.517928 -14.220165 0.000000 -0.000000 0.000000 -2.511845 2.370111 2.947505 2.194483 -1.649122 3.447926 2.256328 -0.948087 4.647229 4.015136 4.453229 0.312755 1.972173 0.730815 4.424517 -24.286461 5.720146 3.811351 -64.835623 -4.637605 8.122016 11.387912 -25.036702 5.155446 -1.434061 -2.254736 -11.379103 22.502293 -3.795751 3.269425 64.037963 2.057236 10.259590 -15.416322 23.974498 -3.890074 7.101458 0.503476 -12.737021 
1.179541 1.149089 0.983066 -90.176091 2.530467 85.630650 0.737950 -0.828493 7.341057 -3.025705 -15.859055 2.730568 6.138138 8.225181 -17.477206 0.000000 -0.000000 0.000000 3.581971 -1.691961 4.122281 3.654519 4.633169 9.039018 1.112030 -3.440435 -14.291502 0.000000 -0.000000 0.000000 -2.552775 2.374170 2.866492 2.233982 -1.591468 3.640069 2.258575 -0.892771 4.669671 4.082168 4.515593 0.071807 1.947022 0.641193 4.514436 -24.361392 5.635655 3.757991 -64.785972 -4.718291 8.166774 11.481704 -25.153560 5.001806 -1.322385 -2.280197 -11.244495 22.605216 -3.762377 3.259915 63.985603 2.120778 10.260393 -15.505171 23.998803 -4.052011 7.015890 0.583635 -12.736490 
1.180309 1.149415 0.983232 -90.043880 2.463654 85.666530 0.662226 -0.956204 7.189540 -2.999453 -15.832082 2.824888 6.169947 8.224707 -17.558208 0.000000 -0.000000 0.000000 3.597225 -1.577835 4.031766 3.586569 4.511444 9.029781 1.169451 -3.549163 -14.323092 0.000000 -0.000000 0.000000 -2.594271 2.370692 3.054692 2.176989 -1.636140 3.484620 2.249725 -0.952351 4.734981 4.068698 4.837323 -0.315760 2.051778 0.706839 4.637234 -24.335464 5.625573 3.696288 -64.735109 -4.782671 8.231595 11.526893 -25.341688 4.856143 -1.310594 -2.332835 -11.244750 22.771430 -3.735864 3.135769 63.948594 2.147473 10.396994 -15.560600 23.988738 -4.186774 6.960250 0.635049 -12.754311 
1.180381 1.149669 0.983335 -90.086991 2.441671 85.659733 0.609220 -1.006048 7.282692 -2.898971 -15.772660 2.668807 6.157919 8.262517 -17.503180 0.000000 -0.000000 0.000000 3.548521 -1.651776 3.963251 3.627920 4.483972 9.175277 1.157987 -3.465635 -14.304516 0.000000 -0.000000 0.000000 -2.556342 2.407819 3.063082 2.173117 -1.578359 3.501517 2.209436 -0.950990 4.706954 4.105599 5.119239 -0.259680 2.117678 0.926154 4.671099 -24.308606 5.642206 3.689563 -64.702651 -4.803281 8.278211 11.463972 -25.475936 4.973220 -1.242233 -2.374556 -11.105888 22.818825 -3.821242 3.086193 63.988081 2.134264 10.477144 -15.556553 24.123614 -4.132865 6.928933 0.650186 -12.728765 
